g PolySpikeSimple
v -0 0 0.11048194
v 0.04548233 0.017200464 0.0151463
v -0.012714579 -0.045230653 0.0151463
v 0.04548233 0.017200464 0.0151463
v -0.034538724 0.034538724 0.0151463
v 7.1621905E-12 2.1691596E-17 -0.0068973564
v -0 0 0.11048194
v -0.012714579 -0.045230653 0.0151463
v -0.034538724 0.034538724 0.0151463
v 0.04548233 0.017200464 0.0151463
v -0 0 0.11048194
v -0.034538724 0.034538724 0.0151463
v -0.012714579 -0.045230653 0.0151463
v 0.04548233 0.017200464 0.0151463
v 7.1621905E-12 2.1691596E-17 -0.0068973564
v -0.034538724 0.034538724 0.0151463
v -0.012714579 -0.045230653 0.0151463
v 7.1621905E-12 2.1691596E-17 -0.0068973564
vt 0 0.5
vt 0.5 5.1842027E-11
vt -0.5 5.184207E-11
vt 5.1842027E-11 0.5
vt 1.1715482E-18 -0.5
vt -0.5 1.03683485E-10
vt 0 0.5
vt 5.184207E-11 0.5
vt 0.5 1.1715482E-18
vt 5.1842027E-11 0.5
vt 0.5 0
vt 1.1715482E-18 -0.5
vt -0.5 5.184207E-11
vt 0.5 5.1842027E-11
vt 3.140185E-16 -0.5
vt 0.5 1.1715482E-18
vt 5.184207E-11 0.5
vt -0.5 1.03683485E-10
vn 0.7134907 -0.6651004 0.22039178
vn 0.7134908 -0.6651003 0.22039178
vn 0.7134908 -0.66510034 0.22039175
vn 0.13559648 0.62581676 -0.76809317
vn 0.13559647 0.62581676 -0.76809317
vn 0.13559648 0.6258167 -0.76809317
vn -0.9349025 -0.25578046 0.24603611
vn -0.9349025 -0.25578046 0.24603611
vn -0.9349025 -0.25578043 0.2460361
vn 0.20405455 0.9417705 0.2672638
vn 0.20405456 0.9417705 0.2672638
vn 0.20405455 0.9417705 0.2672638
vn 0.5231644 -0.48768228 -0.6989027
vn 0.5231644 -0.48768228 -0.6989027
vn 0.52316445 -0.48768222 -0.6989028
vn -0.6495335 -0.17770618 -0.73927444
vn -0.6495335 -0.1777062 -0.73927444
vn -0.6495335 -0.1777062 -0.73927456
g PolySpikeSimple_0
f 3/3/3 2/2/2 1/1/1
f 6/6/6 5/5/5 4/4/4
f 9/9/9 8/8/8 7/7/7
f 12/12/12 11/11/11 10/10/10
f 15/15/15 14/14/14 13/13/13
f 18/18/18 17/17/17 16/16/16
